<?xml version="1.0" standalone="no"?>
<!DOCTYPE svg PUBLIC "-//W3C//DTD SVG 20010904//EN"
 "http://www.w3.org/TR/2001/REC-SVG-20010904/DTD/svg10.dtd">
<svg version="1.0" xmlns="http://www.w3.org/2000/svg"
 width="500.000000pt" height="500.000000pt" viewBox="0 0 500.000000 500.000000"
 preserveAspectRatio="xMidYMid meet">
<metadata>
Created by potrace 1.14, written by Peter Selinger 2001-2017
</metadata>
<g transform="translate(0.000000,500.000000) scale(0.100000,-0.100000)"
fill="#000000" stroke="none">
<path d="M2494 4066 l-48 -83 -80 -12 c-91 -14 -230 -57 -308 -97 -308 -155
-520 -436 -587 -778 l-16 -80 -88 -51 -88 -52 89 -51 89 -52 6 -53 c32 -272
193 -547 419 -717 135 -102 319 -182 469 -205 44 -7 44 -7 108 -117 45 -77 67
-106 72 -97 5 8 32 54 61 103 29 49 60 92 68 96 8 4 51 14 95 23 261 49 525
224 675 449 33 49 60 95 60 102 0 7 -63 34 -149 63 l-149 51 -53 -70 c-92
-125 -251 -231 -409 -275 -101 -27 -302 -25 -400 6 -136 42 -225 96 -325 196
-138 137 -201 266 -225 457 -38 306 134 620 415 759 81 40 214 79 267 79 29 0
29 0 -33 71 l-63 70 24 45 c13 25 42 61 64 80 43 37 111 63 125 48 4 -5 123
-131 264 -281 l257 -272 148 50 c81 27 153 51 160 54 29 11 -125 174 -243 257
-91 65 -200 119 -300 151 -77 24 -99 29 -177 42 -33 5 -40 13 -85 90 -26 47
-51 85 -54 85 -4 0 -28 -38 -55 -84z m-784 -1071 c18 -16 20 -28 18 -79 -3
-55 -5 -61 -25 -64 -21 -3 -23 0 -23 46 0 57 -6 62 -81 62 l-49 0 0 -50 c0
-47 -2 -50 -25 -50 -24 0 -25 2 -25 64 0 54 3 66 23 80 32 24 157 18 187 -9z
m39 -258 c18 -87 8 -110 -56 -127 -34 -8 -48 -8 -59 1 -11 9 -21 5 -45 -16
-25 -20 -34 -23 -40 -13 -16 25 -9 55 16 68 25 14 30 26 19 53 -4 12 -15 14
-41 10 -33 -6 -34 -5 -31 23 3 27 7 30 93 51 128 31 127 31 144 -50z m69 -195
c21 -44 21 -48 6 -59 -13 -10 -21 -10 -31 -1 -20 16 -136 -39 -128 -61 5 -13
-10 -30 -27 -31 -4 0 -19 22 -33 50 -24 47 -24 50 -7 59 13 7 22 7 29 0 14
-14 137 47 127 62 -7 11 13 29 31 29 6 0 20 -22 33 -48z m107 -157 c30 -37 35
-48 25 -60 -19 -23 -32 -18 -63 21 l-29 35 -46 -37 c-26 -21 -49 -39 -51 -41
-2 -1 10 -18 28 -38 36 -42 37 -46 11 -62 -17 -11 -23 -8 -55 31 -52 64 -49
92 21 150 76 63 108 63 159 1z m1354 -39 c64 -65 67 -88 20 -145 -49 -58 -78
-56 -151 13 -71 65 -74 88 -22 146 53 59 84 56 153 -14z m-1266 -64 c16 -17
15 -21 -8 -52 -39 -53 -18 -65 52 -28 l43 23 20 -21 21 -20 -50 -27 c-47 -26
-50 -31 -62 -85 -15 -71 -20 -77 -48 -55 -20 17 -21 22 -12 63 8 36 7 48 -4
60 -13 13 -17 12 -29 -5 -44 -61 -40 -58 -64 -38 l-22 18 67 93 c37 50 70 92
73 92 4 0 14 -8 23 -18z m1021 -48 c10 -26 8 -28 -39 -54 -25 -14 -45 -28 -45
-32 0 -19 25 -17 63 5 51 30 74 24 101 -26 26 -50 16 -81 -37 -112 -77 -44
-96 -37 -155 63 -42 69 -36 93 32 137 58 38 71 42 80 19z m-773 -88 c63 -24
86 -50 55 -62 -9 -3 -34 1 -56 10 -51 20 -52 20 -48 -6 2 -14 15 -25 38 -33
33 -12 40 -28 22 -47 -4 -4 -25 -2 -45 4 -32 10 -40 9 -48 -3 -14 -23 -11 -27
41 -44 45 -15 50 -20 44 -38 -4 -12 -7 -23 -9 -25 -3 -3 -139 48 -147 56 -6 6
51 176 68 204 8 12 16 10 85 -16z m553 -18 c26 -11 45 -65 31 -87 -3 -6 1 -11
9 -11 24 0 36 -60 19 -91 -12 -19 -31 -29 -85 -43 -38 -10 -71 -16 -73 -14 -2
1 -5 12 -7 23 -2 17 6 22 55 35 50 12 57 17 57 38 0 20 -4 23 -22 18 -13 -3
-40 -9 -60 -12 -34 -6 -38 -4 -38 15 0 17 10 24 45 33 34 9 45 17 45 31 0 17
-5 19 -42 12 -73 -13 -83 -12 -86 10 -2 17 7 23 55 37 32 8 61 16 65 17 4 0
18 -4 32 -11z m-293 -34 c29 -8 11 -44 -21 -44 -27 0 -28 -1 -36 -87 -9 -87
-9 -88 -38 -91 l-28 -4 7 96 7 96 -26 0 c-21 0 -26 5 -26 26 l0 26 73 -7 c39
-3 79 -9 88 -11z"/>
<path d="M1641 2731 c-9 -6 -11 -18 -6 -41 6 -26 11 -31 28 -26 12 3 28 6 35
6 13 0 16 28 6 54 -7 17 -41 21 -63 7z"/>
<path d="M3170 2325 l-24 -25 44 -45 44 -45 25 25 26 25 -46 45 -45 46 -24
-26z"/>
<path d="M3010 2102 c-19 -16 -21 -22 -11 -40 14 -27 22 -27 51 -4 19 16 21
22 11 40 -14 27 -22 27 -51 4z"/>
<path d="M2515 3929 c-33 -19 -76 -62 -92 -92 -13 -26 -13 -31 4 -50 10 -12
159 -175 331 -364 214 -235 317 -340 327 -337 8 4 15 8 15 11 0 4 -101 182
-144 253 l-21 35 30 -19 c17 -11 78 -52 137 -91 91 -62 109 -71 119 -58 10 11
2 25 -47 76 -81 83 -194 203 -419 442 -104 110 -196 201 -205 202 -8 2 -24 -2
-35 -8z"/>
<path d="M2330 3573 c-70 -27 -70 -23 6 -53 122 -49 244 -132 315 -215 l27
-30 -59 -48 -59 -47 -53 40 c-104 80 -253 144 -395 171 -63 12 -63 12 -92 -16
-17 -16 -28 -31 -25 -33 2 -3 24 -6 47 -9 78 -8 202 -43 276 -78 79 -37 192
-112 192 -127 0 -5 -11 -24 -25 -42 -14 -18 -25 -36 -25 -39 0 -12 197 -154
265 -193 77 -42 84 -40 110 41 72 229 -88 494 -392 650 -67 35 -84 39 -113 28z
m465 -445 c6 -22 3 -27 -17 -30 -18 -2 -23 -9 -23 -33 0 -26 -4 -30 -31 -33
-29 -3 -31 -1 -42 49 -7 29 -9 56 -5 60 11 11 97 27 105 20 4 -3 10 -18 13
-33z"/>
<path d="M2135 3476 l-29 -24 59 -12 c90 -18 203 -65 284 -116 l72 -47 24 23
25 23 -33 24 c-89 67 -284 153 -347 153 -14 0 -38 -11 -55 -24z"/>
<path d="M3050 3264 c0 -21 72 -154 88 -163 13 -7 18 -18 15 -34 -3 -14 2 -29
11 -36 9 -8 16 -17 16 -21 0 -8 -190 -176 -273 -240 l-58 -45 38 -17 37 -16
68 61 c37 34 108 100 158 146 49 46 90 76 90 68 0 -8 7 -20 15 -27 8 -7 15
-16 15 -20 0 -11 -154 -142 -261 -222 l-90 -68 -79 40 c-43 22 -117 62 -165
91 l-87 51 22 23 21 23 -38 23 c-21 12 -75 51 -120 86 -49 38 -91 63 -106 63
-13 0 -58 -17 -98 -37 -57 -28 -96 -59 -169 -132 -83 -83 -92 -96 -72 -99 12
-2 22 -6 22 -8 0 -3 -29 -41 -65 -85 -36 -45 -65 -87 -65 -93 0 -16 90 -144
119 -170 19 -17 24 -18 36 -5 17 17 137 250 153 297 l11 33 109 -7 c87 -5 114
-4 137 9 29 15 33 13 155 -47 69 -33 167 -76 217 -95 l92 -34 53 44 c29 24
115 100 191 168 l139 123 34 -33 34 -33 32 32 32 32 -32 33 c-22 23 -31 39
-26 51 7 19 -50 86 -73 86 -7 0 -13 8 -13 17 0 28 -51 73 -83 73 -19 0 -30 6
-34 18 -4 15 -153 108 -153 96z"/>
<path d="M3441 2838 l-33 -30 21 -21 21 -22 32 33 c32 32 32 32 13 51 -20 20
-20 20 -54 -11z"/>
<path d="M2264 2684 c-26 -75 -72 -173 -113 -245 -27 -46 -47 -87 -44 -91 7
-13 138 -88 152 -88 14 0 11 66 -5 163 l-5 32 19 -22 c11 -13 22 -23 25 -23
14 0 100 267 88 274 -4 3 -30 8 -59 12 -45 6 -52 4 -58 -12z"/>
<path d="M2394 2528 c-9 -29 -32 -83 -50 -120 -29 -57 -33 -73 -27 -117 l6
-50 76 -18 c96 -23 236 -22 314 1 31 9 57 19 57 23 0 15 -88 118 -155 181 -62
59 -183 152 -199 152 -2 0 -12 -24 -22 -52z"/>
<path d="M0 450 l0 -300 1048 -2 c2491 -4 3918 -4 3935 0 16 4 17 27 17 303
l0 299 -2500 0 -2500 0 0 -300z m2088 108 c12 -16 13 -138 1 -138 -5 0 -9 11
-9 25 0 16 -6 25 -15 25 -9 0 -15 -9 -15 -25 0 -14 -4 -25 -10 -25 -6 0 -10
32 -10 75 0 72 1 75 24 75 13 0 28 -6 34 -12z m82 2 c0 -5 -9 -10 -20 -10 -29
0 -27 -45 3 -55 l22 -8 -22 -4 c-16 -3 -23 -11 -23 -28 0 -17 7 -25 23 -28 16
-3 13 -5 -10 -6 l-33 -1 0 68 c0 38 3 72 7 75 10 11 53 8 53 -3z m78 1 c9 -5
12 -27 10 -72 l-3 -64 -32 -3 -33 -3 0 75 c0 72 1 76 23 76 12 0 28 -4 35 -9z
m270 -4 c6 -6 10 -39 9 -72 -2 -60 -2 -60 -34 -63 l-33 -3 0 69 c0 38 3 72 7
75 11 11 40 8 51 -6z m52 -57 c0 -62 2 -70 19 -70 15 0 21 12 31 65 14 72 25
88 39 53 16 -42 24 -128 12 -128 -6 0 -11 7 -11 15 0 8 -7 15 -15 15 -8 0 -15
-7 -15 -15 0 -11 -11 -15 -40 -15 l-40 0 0 75 c0 43 4 75 10 75 6 0 10 -30 10
-70z m190 51 c7 -13 7 -22 0 -26 -5 -3 -10 1 -10 10 0 10 -7 15 -17 13 -14 -2
-18 -15 -20 -55 -2 -57 12 -77 33 -48 16 21 27 16 18 -9 -4 -10 -17 -16 -35
-16 l-29 0 0 68 c0 38 3 72 7 75 13 14 43 7 53 -12z m61 -13 c7 17 17 32 21
32 11 0 10 -5 -7 -46 -13 -32 -13 -39 1 -66 8 -16 12 -33 8 -36 -4 -4 -9 -2
-11 4 -2 6 -11 20 -19 30 -15 18 -15 18 -11 -8 2 -16 0 -28 -4 -28 -5 0 -8 35
-8 78 1 59 3 69 9 42 l7 -35 14 33z"/>
<path d="M2050 519 c0 -38 24 -35 28 4 2 19 -1 27 -12 27 -11 0 -16 -10 -16
-31z"/>
<path d="M2210 489 c0 -81 24 -77 28 4 2 46 0 57 -13 57 -12 0 -15 -13 -15
-61z"/>
<path d="M2482 525 c4 -33 22 -33 26 0 2 18 -1 25 -13 25 -12 0 -15 -7 -13
-25z"/>
<path d="M2480 455 c0 -16 6 -25 15 -25 9 0 15 9 15 25 0 16 -6 25 -15 25 -9
0 -15 -9 -15 -25z"/>
<path d="M2638 502 c-2 -18 -1 -35 4 -38 15 -9 17 -1 9 36 l-7 35 -6 -33z"/>
</g>
</svg>
